<svg xmlns="http://www.w3.org/2000/svg" width="64" height="64"><path fill="url(#a)" d="M45.199 25.799a29.977 31.973 0 0 0-9.978 13.12 41.36 44.114 0 0 0-3.224 17.801 40.73 43.442 0 0 0-3.227-17.801 29.972 31.968 0 0 0-9.974-13.12A36.882 39.337 0 0 1 32.036 2 37.07 39.538 0 0 1 45.2 25.799Z" style="fill:url(#a);stroke-width:4.42645"/><path fill="url(#b)" d="M31.997 61.959V62A30.024 32.023 0 0 1 3.495 19.998a28.965 30.894 0 0 1 15.301 5.805 32.84 35.026 0 0 0-.488 6.195 36.303 38.72 0 0 0 13.69 29.965z" style="fill:url(#b);stroke-width:4.42645"/><path fill="url(#c)" d="M31.997 56.72v5.239a36.303 38.72 0 0 1-13.69-29.957 32.84 35.026 0 0 1 .49-6.203 29.977 31.973 0 0 1 9.973 13.12 40.74 43.451 0 0 1 3.227 17.801Z" style="fill:url(#c);stroke-width:4.42645"/><path fill="url(#d)" d="M62 29.959A29.998 31.995 0 0 1 32.036 62a36.517 38.949 0 0 0 13.651-30.002 32.951 35.145 0 0 0-.488-6.2 28.961 30.89 0 0 1 15.3-5.796A29.531 31.497 0 0 1 62 29.96z" style="fill:url(#d);stroke-width:4.42645"/><path fill="url(#e)" d="M45.687 32.002A36.517 38.949 0 0 1 32.037 62h-.04v-5.28a41.36 44.114 0 0 1 3.224-17.801 29.972 31.968 0 0 1 9.978-13.12c.334 2.048.497 4.123.488 6.203z" style="fill:url(#e);stroke-width:4.42645"/><defs><linearGradient id="a" x1="12" x2="12" y1="5" y2="18.125" gradientTransform="matrix(4.28607 0 0 4.57143 -19.435 -20.857)" gradientUnits="userSpaceOnUse"><stop offset=".156" stop-color="#D3A1F7"/><stop offset=".76" stop-color="#A963DA"/></linearGradient><linearGradient id="b" x1="8.5" x2="8.5" y1="8.938" y2="18.125" gradientTransform="matrix(4.28607 0 0 4.57143 -19.435 -20.857)" gradientUnits="userSpaceOnUse"><stop offset=".12" stop-color="#FDA8C9"/><stop offset=".922" stop-color="#EE6C9F"/></linearGradient><linearGradient id="c" x1="10.403" x2="10.403" y1="10.206" y2="18.116" gradientTransform="matrix(4.28607 0 0 4.57143 -19.435 -20.857)" gradientUnits="userSpaceOnUse"><stop stop-color="#BE53B3"/><stop offset=".599" stop-color="#A12E8C"/></linearGradient><linearGradient id="d" x1="15.504" x2="15.504" y1="8.938" y2="18.125" gradientTransform="matrix(4.28607 0 0 4.57143 -19.435 -20.857)" gradientUnits="userSpaceOnUse"><stop offset=".12" stop-color="#87E8D1"/><stop offset=".922" stop-color="#15C39A"/></linearGradient><linearGradient id="e" x1="13.597" x2="13.597" y1="10.206" y2="18.125" gradientTransform="matrix(4.28607 0 0 4.57143 -19.435 -20.857)" gradientUnits="userSpaceOnUse"><stop stop-color="#5576B6"/><stop offset=".594" stop-color="#134F88"/></linearGradient></defs></svg>